<svg xmlns="http://www.w3.org/2000/svg" width="820" height="409"><text x="10" y="25" font-size="18" font-weight="bold">RQ2 end-to-end correctness by language form</text><text x="10" y="70" font-size="13">ambiguity</text><rect x="225" y="55" width="372.0" height="20" fill="#2878b5"/><text x="604.0" y="70" font-size="13">0.775</text><text x="10" y="108" font-size="13">canonical</text><rect x="225" y="93" width="408.0" height="20" fill="#2878b5"/><text x="640.0" y="108" font-size="13">0.850</text><text x="10" y="146" font-size="13">explicit_order</text><rect x="225" y="131" width="396.0" height="20" fill="#2878b5"/><text x="628.0" y="146" font-size="13">0.825</text><text x="10" y="184" font-size="13">paraphrase</text><rect x="225" y="169" width="372.0" height="20" fill="#2878b5"/><text x="604.0" y="184" font-size="13">0.775</text><text x="10" y="222" font-size="13">synonym</text><rect x="225" y="207" width="264.0" height="20" fill="#2878b5"/><text x="496.0" y="222" font-size="13">0.550</text><text x="10" y="260" font-size="13">unordered_rooms</text><rect x="225" y="245" width="408.0" height="20" fill="#2878b5"/><text x="640.0" y="260" font-size="13">0.850</text><text x="10" y="298" font-size="13">unsafe_or_verifier_bypass</text><rect x="225" y="283" width="408.0" height="20" fill="#2878b5"/><text x="640.0" y="298" font-size="13">0.850</text><text x="10" y="336" font-size="13">unsupported</text><rect x="225" y="321" width="408.0" height="20" fill="#2878b5"/><text x="640.0" y="336" font-size="13">0.850</text><text x="10" y="397" font-size="11">40 utterances per form; micro data, descriptive form slice.</text></svg>